<svg xmlns="http://www.w3.org/2000/svg" xmlns:xlink="http://www.w3.org/1999/xlink" viewBox="0 0 273.76 334.5"><defs><style>.cls-1{isolation:isolate;}.cls-2{fill:#f86734;}.cls-11,.cls-13,.cls-15,.cls-3,.cls-5,.cls-6,.cls-7{mix-blend-mode:multiply;}.cls-3,.cls-5,.cls-7{opacity:0.4;}.cls-3{fill:url(#linear-gradient);}.cls-4{fill:#e1e2e6;}.cls-5{fill:url(#linear-gradient-2);}.cls-6{fill:#4285f4;}.cls-8{fill:url(#linear-gradient-3);}.cls-10,.cls-12,.cls-9{fill:none;}.cls-9{stroke:#686c71;stroke-miterlimit:10;stroke-width:7.39px;}.cls-10,.cls-12{stroke:#4285f4;stroke-linecap:round;stroke-linejoin:round;}.cls-10{stroke-width:7.08px;}.cls-12{stroke-width:7.01px;}.cls-13,.cls-15{opacity:0.2;}.cls-13{fill:url(#linear-gradient-4);}.cls-14{fill:#f1f1f2;}.cls-15{fill:url(#linear-gradient-5);}</style><linearGradient id="linear-gradient" y1="181" x2="255.65" y2="181" gradientUnits="userSpaceOnUse"><stop offset="0" stop-color="#f16522"/><stop offset="1" stop-color="#fff"/></linearGradient><linearGradient id="linear-gradient-2" x1="194.83" y1="334.09" x2="194.83" y2="304.48" gradientUnits="userSpaceOnUse"><stop offset="0" stop-color="#686c71"/><stop offset="0.32" stop-color="#9d9fa3"/><stop offset="0.78" stop-color="#e3e4e5"/><stop offset="1" stop-color="#fff"/></linearGradient><linearGradient id="linear-gradient-3" x1="175.26" y1="286.4" x2="175.26" y2="262.06" gradientUnits="userSpaceOnUse"><stop offset="0" stop-color="#686c71"/><stop offset="0.04" stop-color="#6f7377"/><stop offset="0.56" stop-color="#c2c4c6"/><stop offset="0.8" stop-color="#e6e7e7"/><stop offset="1" stop-color="#fff"/></linearGradient><linearGradient id="linear-gradient-4" x1="148.47" y1="197.92" x2="61.14" y2="171.1" gradientUnits="userSpaceOnUse"><stop offset="0" stop-color="#979da5"/><stop offset="1" stop-color="#fff"/></linearGradient><linearGradient id="linear-gradient-5" x1="173.49" y1="135.23" x2="144.79" y2="117.42" xlink:href="#linear-gradient-4"/></defs><g class="cls-1"><g id="Layer_2" data-name="Layer 2"><g id="Layer_1-2" data-name="Layer 1"><polygon class="cls-2" points="255.65 27.52 0 28.07 0 334.48 255.65 333.93 255.65 27.52"/><polygon class="cls-3" points="255.65 27.52 0 28.07 0 334.48 255.65 333.93 255.65 27.52"/><path class="cls-4" d="M250.73,285.49H196V260.93h27.3l-3.64-7.74H139.27A23.1,23.1,0,0,0,122,260.93h65.33v24.56H115.9v29.57H133c0-.18,0-.36,0-.54a15.83,15.83,0,1,1,31.66,0c0,.18,0,.36,0,.54h66.54c0-.18,0-.36,0-.54a15.83,15.83,0,1,1,31.66,0c0,.18,0,.36,0,.54h10.93v-6.54A23,23,0,0,0,250.73,285.49Z"/><path class="cls-5" d="M250.73,285.49H196V260.93h27.3l-3.64-7.74H139.27A23.1,23.1,0,0,0,122,260.93h65.33v24.56H115.9v29.57H133c0-.18,0-.36,0-.54a15.83,15.83,0,1,1,31.66,0c0,.18,0,.36,0,.54h66.54c0-.18,0-.36,0-.54a15.83,15.83,0,1,1,31.66,0c0,.18,0,.36,0,.54h10.93v-6.54A23,23,0,0,0,250.73,285.49Z"/><path class="cls-6" d="M187.32,260.93h-65.5a23.07,23.07,0,0,0-5.92,15.46v9.1h71.42Z"/><polygon class="cls-6" points="195.97 285.49 234.82 285.49 223.26 260.93 195.97 260.93 195.97 285.49"/><g class="cls-7"><path class="cls-8" d="M223.08,260.93H121.8a23.1,23.1,0,0,0-5.9,15.46v9.1H234.63Z"/></g><circle class="cls-9" cx="148.65" cy="314.15" r="10.92"/><circle class="cls-9" cx="246.92" cy="314.15" r="10.92"/><line class="cls-10" x1="197.33" y1="293.23" x2="210.07" y2="293.23"/><g class="cls-11"><line class="cls-12" x1="120.9" y1="295.5" x2="89.51" y2="295.5"/><line class="cls-12" x1="109.07" y1="286.86" x2="94.06" y2="286.86"/></g><path class="cls-4" d="M187,27.57,0,28.07V179.61H0V334.5H0a128.73,128.73,0,0,0,110.21-62.1h0v-.05a128.23,128.23,0,0,0,18.57-66.66V179.61h-2.13L136.2,126Z"/><path class="cls-13" d="M187,27.57,0,28.07V179.61H0V334.5H0a128.73,128.73,0,0,0,110.21-62.1h0v-.05a128.23,128.23,0,0,0,18.57-66.66V179.61h-2.13L136.2,126Z"/><path class="cls-14" d="M189.93,8.3,49.87,176.82A59.5,59.5,0,0,1,117,259.63l108-231.19Z"/><ellipse class="cls-14" cx="206.58" cy="19.88" rx="20.54" ry="19.88"/><path class="cls-15" d="M225,28.68a19.27,19.27,0,0,0,2.11-8.77c0-11-9.2-19.89-20.55-19.89a20.71,20.71,0,0,0-17.19,9L49.87,176.82A59.5,59.5,0,0,1,117,259.63Z"/></g></g></g></svg>