<svg xmlns="http://www.w3.org/2000/svg" xmlns:xlink="http://www.w3.org/1999/xlink" viewBox="0 0 252.34 291.28"><defs><style>.cls-1{isolation:isolate;}.cls-2{fill:#4285f4;}.cls-3,.cls-8,.cls-9{mix-blend-mode:multiply;}.cls-3{opacity:0.3;fill:url(#linear-gradient);}.cls-4{fill:#e1e2e6;}.cls-5{fill:none;stroke:#fff;stroke-linecap:round;stroke-linejoin:round;stroke-width:5.45px;}.cls-6{fill:#fff;}.cls-7{fill:#f1f1f2;}.cls-8,.cls-9{opacity:0.4;}.cls-8{fill:url(#linear-gradient-2);}.cls-9{fill:url(#linear-gradient-3);}</style><linearGradient id="linear-gradient" x1="4444.96" y1="-1270.37" x2="4497.73" y2="-1270.37" gradientTransform="translate(-4588.17 1384.66) scale(1.03 0.99)" gradientUnits="userSpaceOnUse"><stop offset="0" stop-color="#fff"/><stop offset="0.99" stop-color="#686c71"/></linearGradient><linearGradient id="linear-gradient-2" x1="4534.8" y1="-1116.43" x2="4534.8" y2="-1187.36" xlink:href="#linear-gradient"/><linearGradient id="linear-gradient-3" x1="4559.21" y1="-1257.03" x2="4446.11" y2="-1257.03" xlink:href="#linear-gradient"/></defs><g class="cls-1"><g id="Layer_2" data-name="Layer 2"><g id="Layer_1-2" data-name="Layer 1"><rect class="cls-2" y="26.01" width="54.48" height="239.44"/><ellipse class="cls-2" cx="27.24" cy="26.01" rx="27.24" ry="26.01"/><path class="cls-3" d="M27.24,0C12.2,0,0,11.64,0,26V265.44H54.48V26C54.48,11.64,42.28,0,27.24,0Z"/><rect class="cls-4" x="54.48" y="26.28" width="197.86" height="239.16"/><rect class="cls-5" x="163.04" y="168.45" width="66.35" height="64.05"/><line class="cls-5" x1="160.36" y1="138.91" x2="228.69" y2="138.91"/><line class="cls-5" x1="160.36" y1="110.1" x2="228.69" y2="110.1"/><line class="cls-5" x1="160.36" y1="81.09" x2="228.69" y2="81.09"/><line class="cls-5" x1="160.36" y1="54.84" x2="228.69" y2="54.84"/><rect class="cls-6" x="77.61" y="51.08" width="56.17" height="191"/><rect class="cls-7" x="27.39" y="265.46" width="158.09" height="25.82"/><ellipse class="cls-7" cx="27.24" cy="265.27" rx="27.24" ry="26.01"/><path class="cls-8" d="M54.47,265.46c0-.06,0-.13,0-.19,0-14.36-12.2-26-27.24-26S0,250.91,0,265.27s12.2,26,27.24,26H185.47V265.46Z"/><rect class="cls-9" x="54.48" y="26.28" width="197.86" height="239.16"/></g></g></g></svg>