<svg xmlns="http://www.w3.org/2000/svg" viewBox="0 0 186.47 263.08"><defs><style>.cls-1{fill:#2a2c33;}.cls-2{fill:#e1e2e6;}.cls-3,.cls-5,.cls-7{fill:none;stroke-linecap:round;}.cls-3,.cls-5{stroke:#e1e2e6;}.cls-3{stroke-miterlimit:10;stroke-width:6.4px;}.cls-4{fill:#fff;}.cls-5,.cls-7{stroke-linejoin:round;}.cls-5{stroke-width:5.28px;}.cls-6{fill:#4285f4;}.cls-7{stroke:#4285f4;stroke-width:4.72px;}.cls-8{fill:#34a853;}.cls-9{fill:#fabb05;}.cls-10{fill:#e94235;}</style></defs><g id="Layer_2" data-name="Layer 2"><g id="Layer_1-2" data-name="Layer 1"><rect class="cls-1" x="-38.3" y="38.3" width="263.08" height="186.47" rx="29.32" transform="translate(224.77 38.3) rotate(90)"/><rect class="cls-2" x="-11.04" y="45.33" width="208.54" height="167.08" transform="translate(222.11 35.64) rotate(90)"/><line class="cls-3" x1="83.83" y1="13.2" x2="102.64" y2="13.2"/><circle class="cls-3" cx="93.24" cy="247.13" r="7.73"/><rect class="cls-4" x="23.83" y="40.34" width="91.88" height="135.18"/><rect class="cls-4" x="23.83" y="187.14" width="91.88" height="45.94"/><rect class="cls-4" x="127.33" y="40.34" width="38.02" height="192.74"/><line class="cls-5" x1="134.72" y1="51.96" x2="157.96" y2="51.96"/><line class="cls-5" x1="134.99" y1="205.89" x2="158.22" y2="205.89"/><line class="cls-5" x1="134.99" y1="99.75" x2="158.22" y2="99.75"/><line class="cls-5" x1="134.99" y1="106.09" x2="146.6" y2="106.09"/><line class="cls-5" x1="134.99" y1="154.14" x2="150.3" y2="154.14"/><line class="cls-5" x1="134.99" y1="160.47" x2="146.6" y2="160.47"/><rect class="cls-2" x="32.28" y="195.59" width="75.51" height="8.45"/><rect class="cls-4" x="29.61" y="78.33" width="80.52" height="82.12"/><path class="cls-6" d="M97.86,123.18A20.47,20.47,0,1,0,67.05,96.23C67,96.29,97.8,123.24,97.86,123.18Z"/><path class="cls-7" d="M55.13,91.86c3.4,4.56-.73,7.65,2.67,12.21s7.55,1.48,11,6.05-.73,7.65,2.67,12.22,7.55,1.47,11,6-.73,7.65,2.68,12.22,7.54,1.48,11,6.05"/><circle class="cls-7" cx="48.29" cy="121.07" r="7.55"/><polyline class="cls-7" points="59.3 150.81 73.37 154.26 67.24 129.58 48.32 148.13 58.95 151.01"/><path class="cls-6" d="M53.11,58.29a13.17,13.17,0,0,0-.18-2.12H42.84V59.9h5.68a6.23,6.23,0,0,1-2.2,3.82v2.8h3.54A11.09,11.09,0,0,0,53.11,58.29Z"/><path class="cls-8" d="M42.6,69.23a10.33,10.33,0,0,0,7.26-2.71l-3.54-2.8A6.49,6.49,0,0,1,42.6,64.8a6.57,6.57,0,0,1-6.15-4.63H32.81v2.89A10.94,10.94,0,0,0,42.6,69.23Z"/><path class="cls-9" d="M36.45,60.17A6.86,6.86,0,0,1,36.1,58a7,7,0,0,1,.35-2.14V53H32.81a11.38,11.38,0,0,0,0,10.05Z"/><path class="cls-10" d="M42.6,51.27A5.85,5.85,0,0,1,46.81,53h0l3.13-3.2a10.41,10.41,0,0,0-7.34-2.92A11,11,0,0,0,32.81,53l3.64,2.88A6.57,6.57,0,0,1,42.6,51.27Z"/></g></g></svg>